<svg id="visual" viewBox="0 0 3840 2160" width="3840" height="2160" xmlns="http://www.w3.org/2000/svg" xmlns:xlink="http://www.w3.org/1999/xlink" version="1.1"><rect x="0" y="0" width="3840" height="2160" fill="#FFFFFF"></rect><path d="M0 1909L71.2 1897.8C142.3 1886.7 284.7 1864.3 426.8 1823.7C569 1783 711 1724 853.2 1734.2C995.3 1744.3 1137.7 1823.7 1280 1842.7C1422.3 1861.7 1564.7 1820.3 1706.8 1818.5C1849 1816.7 1991 1854.3 2133.2 1856.5C2275.3 1858.7 2417.7 1825.3 2560 1796.8C2702.3 1768.3 2844.7 1744.7 2986.8 1750.5C3129 1756.3 3271 1791.7 3413.2 1806.7C3555.3 1821.7 3697.7 1816.3 3768.8 1813.7L3840 1811L3840 2161L3768.8 2161C3697.7 2161 3555.3 2161 3413.2 2161C3271 2161 3129 2161 2986.8 2161C2844.7 2161 2702.3 2161 2560 2161C2417.7 2161 2275.3 2161 2133.2 2161C1991 2161 1849 2161 1706.8 2161C1564.7 2161 1422.3 2161 1280 2161C1137.7 2161 995.3 2161 853.2 2161C711 2161 569 2161 426.8 2161C284.7 2161 142.3 2161 71.2 2161L0 2161Z" fill="#4a16ff"></path><path d="M0 1835L71.2 1813.7C142.3 1792.3 284.7 1749.7 426.8 1753.3C569 1757 711 1807 853.2 1831.8C995.3 1856.7 1137.7 1856.3 1280 1859.5C1422.3 1862.7 1564.7 1869.3 1706.8 1881.2C1849 1893 1991 1910 2133.2 1917.3C2275.3 1924.7 2417.7 1922.3 2560 1884.5C2702.3 1846.7 2844.7 1773.3 2986.8 1769.3C3129 1765.3 3271 1830.7 3413.2 1872.3C3555.3 1914 3697.7 1932 3768.8 1941L3840 1950L3840 2161L3768.8 2161C3697.7 2161 3555.3 2161 3413.2 2161C3271 2161 3129 2161 2986.8 2161C2844.7 2161 2702.3 2161 2560 2161C2417.7 2161 2275.3 2161 2133.2 2161C1991 2161 1849 2161 1706.8 2161C1564.7 2161 1422.3 2161 1280 2161C1137.7 2161 995.3 2161 853.2 2161C711 2161 569 2161 426.8 2161C284.7 2161 142.3 2161 71.2 2161L0 2161Z" fill="#8603f6"></path><path d="M0 1900L71.2 1896.5C142.3 1893 284.7 1886 426.8 1891.5C569 1897 711 1915 853.2 1933.7C995.3 1952.3 1137.7 1971.7 1280 1966C1422.3 1960.3 1564.7 1929.7 1706.8 1904.7C1849 1879.7 1991 1860.3 2133.2 1841.2C2275.3 1822 2417.7 1803 2560 1821.5C2702.3 1840 2844.7 1896 2986.8 1905.7C3129 1915.3 3271 1878.7 3413.2 1855.3C3555.3 1832 3697.7 1822 3768.8 1817L3840 1812L3840 2161L3768.8 2161C3697.7 2161 3555.3 2161 3413.2 2161C3271 2161 3129 2161 2986.8 2161C2844.7 2161 2702.3 2161 2560 2161C2417.7 2161 2275.3 2161 2133.2 2161C1991 2161 1849 2161 1706.8 2161C1564.7 2161 1422.3 2161 1280 2161C1137.7 2161 995.3 2161 853.2 2161C711 2161 569 2161 426.8 2161C284.7 2161 142.3 2161 71.2 2161L0 2161Z" fill="#ac00ec"></path><path d="M0 1987L71.2 1978.7C142.3 1970.3 284.7 1953.7 426.8 1951.7C569 1949.7 711 1962.3 853.2 1955.7C995.3 1949 1137.7 1923 1280 1919.7C1422.3 1916.3 1564.7 1935.7 1706.8 1954.8C1849 1974 1991 1993 2133.2 2000C2275.3 2007 2417.7 2002 2560 1987.2C2702.3 1972.3 2844.7 1947.7 2986.8 1931.7C3129 1915.7 3271 1908.3 3413.2 1901.7C3555.3 1895 3697.7 1889 3768.8 1886L3840 1883L3840 2161L3768.8 2161C3697.7 2161 3555.3 2161 3413.2 2161C3271 2161 3129 2161 2986.8 2161C2844.7 2161 2702.3 2161 2560 2161C2417.7 2161 2275.3 2161 2133.2 2161C1991 2161 1849 2161 1706.8 2161C1564.7 2161 1422.3 2161 1280 2161C1137.7 2161 995.3 2161 853.2 2161C711 2161 569 2161 426.8 2161C284.7 2161 142.3 2161 71.2 2161L0 2161Z" fill="#c900e4"></path><path d="M0 2057L71.2 2053.7C142.3 2050.3 284.7 2043.7 426.8 2030.5C569 2017.3 711 1997.7 853.2 1999.5C995.3 2001.3 1137.7 2024.7 1280 2028.8C1422.3 2033 1564.7 2018 1706.8 2015.2C1849 2012.3 1991 2021.7 2133.2 2030.7C2275.3 2039.7 2417.7 2048.3 2560 2039C2702.3 2029.7 2844.7 2002.3 2986.8 1989.2C3129 1976 3271 1977 3413.2 1986.2C3555.3 1995.3 3697.7 2012.7 3768.8 2021.3L3840 2030L3840 2161L3768.8 2161C3697.7 2161 3555.3 2161 3413.2 2161C3271 2161 3129 2161 2986.8 2161C2844.7 2161 2702.3 2161 2560 2161C2417.7 2161 2275.3 2161 2133.2 2161C1991 2161 1849 2161 1706.8 2161C1564.7 2161 1422.3 2161 1280 2161C1137.7 2161 995.3 2161 853.2 2161C711 2161 569 2161 426.8 2161C284.7 2161 142.3 2161 71.2 2161L0 2161Z" fill="#e100db"></path><path d="M0 2089L71.2 2082.5C142.3 2076 284.7 2063 426.8 2066.2C569 2069.3 711 2088.7 853.2 2088.8C995.3 2089 1137.7 2070 1280 2059.8C1422.3 2049.7 1564.7 2048.3 1706.8 2059.2C1849 2070 1991 2093 2133.2 2103.8C2275.3 2114.7 2417.7 2113.3 2560 2102C2702.3 2090.7 2844.7 2069.3 2986.8 2059.7C3129 2050 3271 2052 3413.2 2053.3C3555.3 2054.7 3697.7 2055.3 3768.8 2055.7L3840 2056L3840 2161L3768.8 2161C3697.7 2161 3555.3 2161 3413.2 2161C3271 2161 3129 2161 2986.8 2161C2844.7 2161 2702.3 2161 2560 2161C2417.7 2161 2275.3 2161 2133.2 2161C1991 2161 1849 2161 1706.8 2161C1564.7 2161 1422.3 2161 1280 2161C1137.7 2161 995.3 2161 853.2 2161C711 2161 569 2161 426.8 2161C284.7 2161 142.3 2161 71.2 2161L0 2161Z" fill="#f605d3"></path></svg>